<svg id="Layer_1" data-name="Layer 1" xmlns="http://www.w3.org/2000/svg" viewBox="0 0 1200 1200"><defs><style>.cls-1{fill:#190f2e;}.cls-2{fill:#fff;}</style></defs><path class="cls-1" d="M634.08,66.92q-14.18,0-28.07,1.18,13.95,1.17,27.56,3.48,16.33,2,32.15,5.64c111.53,25.31,201.76,106.72,239.45,213H284.28c-1.92,0-3.82,0-5.71-.14a111.65,111.65,0,0,1,5.71-223.15Z"/><path class="cls-1" d="M690.23,71.66a333,333,0,0,0-56.15-4.74H743a293.64,293.64,0,0,1,31.68,1.7L1025,281.18c.82,3,1.62,6,2.34,9H947.5C908.57,177.39,810.43,92.17,690.23,71.66Z"/><path class="cls-1" d="M905.17,290.21H458.53A293.22,293.22,0,0,1,663.07,78l2.65-.74C777.25,102.53,867.48,183.94,905.17,290.21Z"/><path class="cls-1" d="M1027.36,290.21H947.5c-38.93-112.82-137.07-198-257.27-218.55a295.8,295.8,0,0,1,84.41-3C895,81.57,993.46,167.45,1025,281.18,1025.84,284.17,1026.64,287.18,1027.36,290.21Z"/><path class="cls-1" d="M892.43,693.77a319,319,0,0,1,14.75,36.1H283.53l-1.2,0c-.65,0-1.3,0-1.94-.05l-.81,0-.49,0-1.31-.07h-.07l-.76,0-.4,0h-.19l-2-.16-1.67-.16c-.74-.07-1.48-.16-2.22-.25l-1.9-.25-1.53-.23-1.91-.31-1.43-.26-1.82-.35-2.41-.52a111.65,111.65,0,0,1,17.09-220.26q3.82-.25,7.71-.26H743a293.64,293.64,0,0,1,31.68,1.7l82,69.62,10.26,8.71q-4.08,5.89-8.41,11.59c-.23.31-.46.61-.7.91Q850.28,609,842,618.24q8.63,9.68,16.45,20c.61.8,1.22,1.61,1.82,2.42,2.47,3.3,4.86,6.63,7.18,10q1.29,1.88,2.55,3.77a323,323,0,0,1,20.81,36C891.37,691.58,891.91,692.67,892.43,693.77Z"/><path class="cls-1" d="M1027.36,729.87H941.49a330.57,330.57,0,0,0-50.26-93.4q-5.84-7.61-12.1-14.86,6.33-6.93,12.25-14.22l17,14.47,38.81,32.95,77.78,66C1025.84,723.83,1026.64,726.84,1027.36,729.87Z"/><path class="cls-1" d="M892.43,693.77a319,319,0,0,1,14.75,36.1H458.53q2.48-10.15,5.64-20c.47-1.46.95-2.91,1.44-4.36q3-9,6.64-17.72A293.51,293.51,0,0,1,660.17,518.46q5-1.46,10-2.75,8.5-2.18,17.18-3.85a295.89,295.89,0,0,1,87.32-3.58A290.82,290.82,0,0,1,878,539.51q6.42,3.33,12.63,7a323.59,323.59,0,0,1-23.09,39.26l-.59.86q-4.08,5.89-8.41,11.59c-.23.31-.46.61-.7.91Q850.28,609,842,618.24q8.63,9.68,16.45,20c.61.8,1.22,1.61,1.82,2.42,2.47,3.3,4.86,6.63,7.18,10q1.29,1.88,2.55,3.77a323,323,0,0,1,20.81,36C891.37,691.58,891.91,692.67,892.43,693.77Z"/><path class="cls-1" d="M1027.36,729.87H941.49a330.57,330.57,0,0,0-50.26-93.4q-5.84-7.61-12.1-14.86,6.33-6.93,12.25-14.22A332.28,332.28,0,0,0,920,566.19a293.17,293.17,0,0,1,105,154.65C1025.84,723.83,1026.64,726.84,1027.36,729.87Z"/><path class="cls-1" d="M600,1168.35q13.88,1.17,28.07,1.18H284.28a111.65,111.65,0,1,1,0-223.29H885.33A331,331,0,0,1,600,1168.35Z"/><path class="cls-1" d="M1027.36,946.24c-.72,3-1.52,6-2.34,9L774.64,1167.83a293.64,293.64,0,0,1-31.68,1.7H628.07a333.43,333.43,0,0,0,59.25-5.28c118.79-21.43,215.57-106.16,254.16-218Z"/><path class="cls-1" d="M660.17,1157.65A293.23,293.23,0,0,1,458.53,946.24h426.8A332.14,332.14,0,0,1,660.17,1157.65Z"/><path class="cls-1" d="M1027.36,946.24c-.72,3-1.52,6-2.34,9C993.46,1069,895,1154.88,774.64,1167.83a295.89,295.89,0,0,1-87.32-3.58c118.79-21.43,215.57-106.16,254.16-218Z"/><path class="cls-1" d="M867.47,650.7q1.29,1.88,2.55,3.77l-14.33,12.17-72.48,61.53a293.36,293.36,0,0,1-31.68,1.7H292.85a112.65,112.65,0,0,1-16-1.14,111.66,111.66,0,0,1-11.16-218.81,106,106,0,0,1,11.17-2.2h0a112.26,112.26,0,0,1,16-1.14H907.2A318.71,318.71,0,0,1,890.85,546l-.27.53a323.59,323.59,0,0,1-23.09,39.26l-.59.86q-4.08,5.89-8.41,11.59c-.23.31-.46.61-.7.91Q850.28,609,842,618.24q8.63,9.68,16.45,20c.61.8,1.22,1.61,1.82,2.42C862.76,644,865.15,647.3,867.47,650.7Z"/><path class="cls-1" d="M1035.94,506.58c-.73,3-1.52,6-2.35,9l-86.76,73.66-38.4,32.59-17.2,14.61q-5.84-7.61-12.1-14.86,6.33-6.93,12.25-14.22A331,331,0,0,0,947.5,506.58Z"/><path class="cls-1" d="M890.83,690.49c.54,1.09,1.08,2.18,1.6,3.28q-8.71,4.82-17.8,9a292.46,292.46,0,0,1-123.1,27.08,293.77,293.77,0,0,1-56.89-5.53q-6.58-1.29-13.06-2.89-3.51-.86-7-1.8c-2.38-.64-4.74-1.32-7.09-2A293.35,293.35,0,0,1,478.28,542.28q-2.71-7-5.07-14.27c-.64-2-1.26-3.92-1.86-5.89q-2.33-7.68-4.24-15.54H907.2A318.71,318.71,0,0,1,890.85,546l-.27.53a323.59,323.59,0,0,1-23.09,39.26l-.59.86q-4.08,5.89-8.41,11.59c-.23.31-.46.61-.7.91Q850.28,609,842,618.24q8.63,9.68,16.45,20c.61.8,1.22,1.61,1.82,2.42,2.47,3.3,4.86,6.63,7.18,10q1.29,1.88,2.55,3.77A323,323,0,0,1,890.83,690.49Z"/><path class="cls-1" d="M1035.94,506.58c-.73,3-1.52,6-2.35,9A293.63,293.63,0,0,1,918.28,677.75a331.7,331.7,0,0,0-27-41.28q-5.84-7.61-12.1-14.86,6.33-6.93,12.25-14.22A331,331,0,0,0,947.5,506.58Z"/><path class="cls-2" d="M907.2,506.58A318.71,318.71,0,0,1,890.85,546l-.27.53a323.59,323.59,0,0,1-23.09,39.26l-.59.86q-4.08,5.89-8.41,11.59c-.23.31-.46.61-.7.91Q850.28,609,842,618.24q8.63,9.68,16.45,20c.61.8,1.22,1.61,1.82,2.42q-6.6,6.2-13.54,12a330.36,330.36,0,0,1-203.38,77.08c-3.09.09-6.18.13-9.29.13q-10.56,0-21-.66c-2.37-.15-4.75-.32-7.11-.52a329.27,329.27,0,0,1-133.76-40.94A332.8,332.8,0,0,1,383,614.84q-8.89-10.29-16.93-21.32-3.51-4.8-6.84-9.73a330.21,330.21,0,0,1-38.59-77.21Z"/><path class="cls-2" d="M905.17,290.21H320.67C361.6,171.6,468,83.48,596.63,69q4.67-.52,9.38-.92,13.95,1.17,27.56,3.48,16.33,2,32.15,5.64C777.25,102.53,867.48,183.94,905.17,290.21Z"/><path class="cls-1" d="M891.35,290.21H284.28c-1.92,0-3.82,0-5.71-.14a110.71,110.71,0,0,1-13.48-1.51C310.41,159.48,433.37,66.92,577.94,66.92q14.17,0,28.07,1.18t27.56,3.48q15,2.52,29.5,6.38A332.18,332.18,0,0,1,891.35,290.21Z"/><path class="cls-1" d="M891.35,506.58A324.18,324.18,0,0,1,878,539.51a328.08,328.08,0,0,1-21.31,38.39q-4,6.29-8.39,12.38A330.44,330.44,0,0,1,606,728.69q-13.87,1.17-28.07,1.18A331.85,331.85,0,0,1,265.69,509.92l-.6-1.69a110.73,110.73,0,0,1,11.48-1.39q3.82-.25,7.71-.26Z"/><path class="cls-2" d="M907.18,729.87H314.66a330,330,0,0,1,43.09-83.7c1.57-2.2,3.16-4.39,4.78-6.55q9.64-12.9,20.5-24.78A330.58,330.58,0,0,1,600,507.76q5-.42,10-.69h0q9-.49,18-.49a330.34,330.34,0,0,1,220.18,83.7q4.86,4.31,9.54,8.83Q850.28,609,842,618.24q8.63,9.68,16.45,20c.61.8,1.22,1.61,1.82,2.42,2.47,3.3,4.86,6.63,7.18,10q1.29,1.88,2.55,3.77a323,323,0,0,1,20.81,36c.54,1.09,1.08,2.18,1.6,3.28A319,319,0,0,1,907.18,729.87Z"/><path class="cls-2" d="M885.33,946.24A331,331,0,0,1,600,1168.35c-132.85-11.13-243.42-100.62-285.33-222.11Z"/><path class="cls-1" d="M284.28,729.87a111.94,111.94,0,0,1-24.8-2.77c.24-.7.49-1.39.74-2.08A331.16,331.16,0,0,1,571.93,506.58q14.18,0,28.07,1.18a332.14,332.14,0,0,1,246.75,144.9q4.65,6.87,8.94,14a328.28,328.28,0,0,1,18.94,36.15q5.94,13.25,10.71,27.08Z"/><path class="cls-1" d="M885.33,946.24A331,331,0,0,1,600,1168.35q-13.87,1.17-28.07,1.18c-144.15,0-266.81-92-312.45-220.52a111.94,111.94,0,0,1,24.8-2.77Z"/><path class="cls-1" d="M905.17,290.21H284.28c-1.92,0-3.82,0-5.71-.14C324.33,161.23,447.32,69,591.85,69c1.59,0,3.19,0,4.78,0a333.28,333.28,0,0,1,36.94,2.56q16.33,2,32.15,5.64C777.25,102.53,867.48,183.94,905.17,290.21Z"/><path class="cls-1" d="M907.2,506.58A318.71,318.71,0,0,1,890.85,546l-.27.53a323.59,323.59,0,0,1-23.09,39.26l-.59.86q-4.08,5.89-8.41,11.59c-.23.31-.46.61-.7.91Q850.28,609,842,618.24q-5.19,5.82-10.64,11.38l-.94,1a333.09,333.09,0,0,1-148.86,87.25q-3.48,1-7,1.83-15.35,3.89-31.22,6.32l-.84.12q-14.5,2.19-29.41,3.12-10.56.66-21.27.66-3.44,0-6.84-.07h0a339.51,339.51,0,0,1-43.8-3.71A333.16,333.16,0,0,1,495.73,716q-15.39-4.57-30.12-10.53l-1-.4a332.82,332.82,0,0,1-102.08-65.45c-.34-.3-.67-.62-1-.93q-10.38-9.8-19.87-20.47-4.4-4.92-8.56-10l-.77-.93a324.47,324.47,0,0,1-55.46-99.56v0c-.09-.28-.19-.58-.29-.86q3.82-.25,7.71-.26Z"/><path class="cls-1" d="M907.18,729.87H283.53l-1.2,0c-.65,0-1.3,0-1.94-.05l-.81,0-.49,0-1.31-.07h-.07l-.76,0-.4,0h0c.1-.28.21-.57.29-.85v0a324.7,324.7,0,0,1,55.47-99.56q1.77-2.17,3.58-4.32,2.82-3.36,5.76-6.63,9.45-10.65,19.86-20.46c1.51-1.43,3-2.85,4.58-4.24a332.81,332.81,0,0,1,98.49-62.14c2.85-1.16,5.73-2.29,8.62-3.37q11.07-4.17,22.5-7.56a333.49,333.49,0,0,1,45.44-10.09,338.22,338.22,0,0,1,40.68-3.63h0q5-.15,10-.15,9.15,0,18.19.49h0q16.44.87,32.46,3.29l.83.12q13.59,2.09,26.79,5.23,5.76,1.35,11.43,2.92a333.08,333.08,0,0,1,149.79,88.2c.79.8,1.57,1.61,2.33,2.42q4.27,4.41,8.33,9,8.63,9.68,16.45,20c.61.8,1.22,1.61,1.82,2.42,2.47,3.3,4.86,6.63,7.18,10q1.29,1.88,2.55,3.77a323,323,0,0,1,20.81,36c.54,1.09,1.08,2.18,1.6,3.28A319,319,0,0,1,907.18,729.87Z"/></svg>